<mxfile host="app.diagrams.net" modified="2021-11-29T03:35:33.820Z" agent="5.0 (Macintosh; Intel Mac OS X 10_14_6) AppleWebKit/537.36 (KHTML, like Gecko) Chrome/96.0.4664.55 Safari/537.36" etag="6t0uoBjII07XdeVoiKs4" version="15.7.1" type="github">
  <diagram id="fyzDNKQ4ZQ7zzm7xykXJ" name="Page-1">
    <mxGraphModel dx="946" dy="614" grid="1" gridSize="10" guides="1" tooltips="1" connect="1" arrows="1" fold="1" page="1" pageScale="1" pageWidth="827" pageHeight="1169" math="0" shadow="0">
      <root>
        <mxCell id="0" />
        <mxCell id="1" parent="0" />
        <mxCell id="PnEwFzaWeCHtbWChhmmZ-8" value="切换模式" style="text;html=1;align=center;verticalAlign=middle;resizable=0;points=[];autosize=1;strokeColor=none;fillColor=none;" vertex="1" parent="1">
          <mxGeometry x="345" y="300" width="60" height="20" as="geometry" />
        </mxCell>
        <mxCell id="PnEwFzaWeCHtbWChhmmZ-11" value="" style="rounded=0;whiteSpace=wrap;html=1;dashed=1;fillColor=none;" vertex="1" parent="1">
          <mxGeometry x="170" y="70" width="410" height="80" as="geometry" />
        </mxCell>
        <mxCell id="PnEwFzaWeCHtbWChhmmZ-14" value="管理页" style="rounded=0;whiteSpace=wrap;html=1;dashed=1;fillColor=none;" vertex="1" parent="1">
          <mxGeometry x="170" y="50" width="60" height="20" as="geometry" />
        </mxCell>
        <mxCell id="PnEwFzaWeCHtbWChhmmZ-26" style="edgeStyle=orthogonalEdgeStyle;rounded=0;orthogonalLoop=1;jettySize=auto;html=1;exitX=0.5;exitY=1;exitDx=0;exitDy=0;entryX=0.463;entryY=0;entryDx=0;entryDy=0;entryPerimeter=0;" edge="1" parent="1" source="PnEwFzaWeCHtbWChhmmZ-18" target="PnEwFzaWeCHtbWChhmmZ-21">
          <mxGeometry relative="1" as="geometry" />
        </mxCell>
        <mxCell id="PnEwFzaWeCHtbWChhmmZ-18" value="新建主题" style="rounded=0;whiteSpace=wrap;html=1;" vertex="1" parent="1">
          <mxGeometry x="199" y="90" width="90" height="40" as="geometry" />
        </mxCell>
        <mxCell id="PnEwFzaWeCHtbWChhmmZ-19" value="下载主题" style="rounded=0;whiteSpace=wrap;html=1;" vertex="1" parent="1">
          <mxGeometry x="459" y="90" width="90" height="40" as="geometry" />
        </mxCell>
        <mxCell id="PnEwFzaWeCHtbWChhmmZ-27" style="edgeStyle=orthogonalEdgeStyle;rounded=0;orthogonalLoop=1;jettySize=auto;html=1;exitX=0.5;exitY=1;exitDx=0;exitDy=0;entryX=0.5;entryY=0;entryDx=0;entryDy=0;" edge="1" parent="1" source="PnEwFzaWeCHtbWChhmmZ-20" target="PnEwFzaWeCHtbWChhmmZ-21">
          <mxGeometry relative="1" as="geometry" />
        </mxCell>
        <mxCell id="PnEwFzaWeCHtbWChhmmZ-28" style="edgeStyle=orthogonalEdgeStyle;rounded=0;orthogonalLoop=1;jettySize=auto;html=1;exitX=0.5;exitY=1;exitDx=0;exitDy=0;" edge="1" parent="1" source="PnEwFzaWeCHtbWChhmmZ-20" target="PnEwFzaWeCHtbWChhmmZ-23">
          <mxGeometry relative="1" as="geometry" />
        </mxCell>
        <mxCell id="PnEwFzaWeCHtbWChhmmZ-20" value="编辑主题" style="rounded=0;whiteSpace=wrap;html=1;" vertex="1" parent="1">
          <mxGeometry x="329" y="90" width="90" height="40" as="geometry" />
        </mxCell>
        <mxCell id="PnEwFzaWeCHtbWChhmmZ-35" style="edgeStyle=orthogonalEdgeStyle;rounded=0;orthogonalLoop=1;jettySize=auto;html=1;exitX=1;exitY=0.5;exitDx=0;exitDy=0;entryX=1;entryY=0.5;entryDx=0;entryDy=0;" edge="1" parent="1" source="PnEwFzaWeCHtbWChhmmZ-21" target="PnEwFzaWeCHtbWChhmmZ-21">
          <mxGeometry relative="1" as="geometry" />
        </mxCell>
        <mxCell id="PnEwFzaWeCHtbWChhmmZ-36" style="edgeStyle=orthogonalEdgeStyle;rounded=0;orthogonalLoop=1;jettySize=auto;html=1;exitX=1;exitY=0.5;exitDx=0;exitDy=0;entryX=0;entryY=0.5;entryDx=0;entryDy=0;" edge="1" parent="1" source="PnEwFzaWeCHtbWChhmmZ-21" target="PnEwFzaWeCHtbWChhmmZ-23">
          <mxGeometry relative="1" as="geometry" />
        </mxCell>
        <mxCell id="PnEwFzaWeCHtbWChhmmZ-21" value="" style="rounded=0;whiteSpace=wrap;html=1;dashed=1;fillColor=none;" vertex="1" parent="1">
          <mxGeometry x="170" y="200" width="160" height="250" as="geometry" />
        </mxCell>
        <mxCell id="PnEwFzaWeCHtbWChhmmZ-22" style="edgeStyle=orthogonalEdgeStyle;rounded=0;orthogonalLoop=1;jettySize=auto;html=1;exitX=0.5;exitY=1;exitDx=0;exitDy=0;" edge="1" parent="1" source="PnEwFzaWeCHtbWChhmmZ-21" target="PnEwFzaWeCHtbWChhmmZ-21">
          <mxGeometry relative="1" as="geometry" />
        </mxCell>
        <mxCell id="PnEwFzaWeCHtbWChhmmZ-37" style="edgeStyle=orthogonalEdgeStyle;rounded=0;orthogonalLoop=1;jettySize=auto;html=1;exitX=0;exitY=0.5;exitDx=0;exitDy=0;entryX=1;entryY=0.5;entryDx=0;entryDy=0;" edge="1" parent="1" source="PnEwFzaWeCHtbWChhmmZ-23" target="PnEwFzaWeCHtbWChhmmZ-21">
          <mxGeometry relative="1" as="geometry" />
        </mxCell>
        <mxCell id="PnEwFzaWeCHtbWChhmmZ-23" value="" style="rounded=0;whiteSpace=wrap;html=1;dashed=1;fillColor=none;" vertex="1" parent="1">
          <mxGeometry x="420" y="200" width="160" height="250" as="geometry" />
        </mxCell>
        <mxCell id="PnEwFzaWeCHtbWChhmmZ-24" value="极速版配置页" style="rounded=0;whiteSpace=wrap;html=1;dashed=1;fillColor=none;" vertex="1" parent="1">
          <mxGeometry x="170" y="180" width="80" height="20" as="geometry" />
        </mxCell>
        <mxCell id="PnEwFzaWeCHtbWChhmmZ-25" value="专业版配置页" style="rounded=0;whiteSpace=wrap;html=1;dashed=1;fillColor=none;" vertex="1" parent="1">
          <mxGeometry x="420" y="180" width="80" height="20" as="geometry" />
        </mxCell>
        <mxCell id="PnEwFzaWeCHtbWChhmmZ-29" value="配置参数" style="rounded=1;whiteSpace=wrap;html=1;fillColor=none;" vertex="1" parent="1">
          <mxGeometry x="209" y="250" width="80" height="30" as="geometry" />
        </mxCell>
        <mxCell id="PnEwFzaWeCHtbWChhmmZ-30" value="保存主题" style="rounded=1;whiteSpace=wrap;html=1;fillColor=none;" vertex="1" parent="1">
          <mxGeometry x="209" y="300" width="80" height="30" as="geometry" />
        </mxCell>
        <mxCell id="PnEwFzaWeCHtbWChhmmZ-31" value="下载主题" style="rounded=1;whiteSpace=wrap;html=1;fillColor=none;" vertex="1" parent="1">
          <mxGeometry x="209" y="350" width="80" height="30" as="geometry" />
        </mxCell>
        <mxCell id="PnEwFzaWeCHtbWChhmmZ-32" value="配置参数" style="rounded=1;whiteSpace=wrap;html=1;fillColor=none;" vertex="1" parent="1">
          <mxGeometry x="460" y="250" width="80" height="30" as="geometry" />
        </mxCell>
        <mxCell id="PnEwFzaWeCHtbWChhmmZ-33" value="保存主题" style="rounded=1;whiteSpace=wrap;html=1;fillColor=none;" vertex="1" parent="1">
          <mxGeometry x="460" y="300" width="80" height="30" as="geometry" />
        </mxCell>
        <mxCell id="PnEwFzaWeCHtbWChhmmZ-34" value="下载主题" style="rounded=1;whiteSpace=wrap;html=1;fillColor=none;" vertex="1" parent="1">
          <mxGeometry x="460" y="350" width="80" height="30" as="geometry" />
        </mxCell>
      </root>
    </mxGraphModel>
  </diagram>
</mxfile>
